# xmcd
#
# Track frame offsets:
#   150
#   13999
#   26585
#   42239
#   60002
#   68781
#   81603
#   93590
#   106680
#   118496
#   126404
#   138834
#   154036
#   166665
#   175757
#   188334
#   212595
#   229386
#
# Disc length: 3242 seconds
#
# Revision: 0
# Processed by: cddbd v1.5.2PL0 Copyright (c) Steve Scherf et al.
# Submitted via: GXTranscoder 2.0.1939
#
DISCID=ed0ca812
DTITLE=Various Artist - Trucker Party CD2
DYEAR=1900
DGENRE=Blues
TTITLE0=Mein Macker is'n Trucker
TTITLE1=Hey Boss, ich brauch'mehr Geld
TTITLE2=Auf der Autobahn
TTITLE3=Ein Laster mit nem Cowboyhut
TTITLE4=Lieber erst um 10 zu Haus als 10 vor 10 im Kranken
TTITLE5=Mein Schatz fährt auf der Autobahn
TTITLE6=10 Tage auf der Autobahn
TTITLE7=Take it easy
TTITLE8=Moonlight
TTITLE9=Ohne Hupe, ohne Bremse, ohne Licht
TTITLE10=Corinna, Corinna
TTITLE11=Wille mach schon
TTITLE12=Das kleine Ding
TTITLE13=Geboren, um Dieseltruck zu fahren
TTITLE14=Wer hat ein Herz, das nie bricht
TTITLE15=Wenn ich nur ein Trucker wär
TTITLE16=Lucille
TTITLE17=Ohne Moos nichts los
EXTD=
EXTT0=
EXTT1=
EXTT2=
EXTT3=
EXTT4=
EXTT5=
EXTT6=
EXTT7=
EXTT8=
EXTT9=
EXTT10=
EXTT11=
EXTT12=
EXTT13=
EXTT14=
EXTT15=
EXTT16=
EXTT17=
PLAYORDER=
